<svg xmlns="http://www.w3.org/2000/svg" width="80" height="80" fill="none" viewBox="0 0 80 80">
    <path fill="#000" d="M29.334 50.667h-2.667v24H10.67V30.583L40.002 6.138 69.334 30.58v44.085h-16v-24c0-.702-.284-1.39-.78-1.886a2.683 2.683 0 0 0-1.887-.782H29.334c-.701 0-1.389.285-1.886.782a2.683 2.683 0 0 0-.78 1.886h2.666v2.667h18.668v24c0 .701.284 1.389.78 1.886A2.683 2.683 0 0 0 50.67 80h21.333c.701 0 1.389-.284 1.886-.781a2.683 2.683 0 0 0 .78-1.886v-48c0-.79-.35-1.542-.959-2.049L41.71.62a2.664 2.664 0 0 0-3.414 0l-32 26.665a2.667 2.667 0 0 0-.96 2.049v48c0 .701.285 1.389.782 1.886a2.683 2.683 0 0 0 1.885.78h21.333c.702 0 1.389-.284 1.886-.781a2.683 2.683 0 0 0 .781-1.886V50.667h-2.669Z"/>
</svg>
